<mxfile host="app.diagrams.net" modified="2024-03-28T11:04:39.908Z" agent="Mozilla/5.0 (Macintosh; Intel Mac OS X 10_15_7) AppleWebKit/605.1.15 (KHTML, like Gecko) Version/17.3 Safari/605.1.15" etag="Nx1HuHhpov8u2GfekbtY" version="24.1.0" type="device">
  <diagram id="1vwlCUlmG0DyAE_5HGvz" name="Statechart diagram">
    <mxGraphModel dx="4254" dy="512" grid="1" gridSize="10" guides="1" tooltips="1" connect="1" arrows="1" fold="1" page="1" pageScale="1" pageWidth="3300" pageHeight="4681" math="0" shadow="0">
      <root>
        <mxCell id="0" />
        <mxCell id="1" parent="0" />
        <mxCell id="UD516i3Ji7gRSXzFSc0f-1" style="edgeStyle=orthogonalEdgeStyle;rounded=0;orthogonalLoop=1;jettySize=auto;html=1;exitX=0.75;exitY=1;exitDx=0;exitDy=0;entryX=0;entryY=0.885;entryDx=0;entryDy=0;entryPerimeter=0;" parent="1" source="UD516i3Ji7gRSXzFSc0f-3" target="UD516i3Ji7gRSXzFSc0f-7" edge="1">
          <mxGeometry relative="1" as="geometry">
            <mxPoint x="-152.42000000000007" y="759.9999999999998" as="targetPoint" />
          </mxGeometry>
        </mxCell>
        <mxCell id="UD516i3Ji7gRSXzFSc0f-2" style="edgeStyle=orthogonalEdgeStyle;rounded=0;orthogonalLoop=1;jettySize=auto;html=1;exitX=1.001;exitY=0.873;exitDx=0;exitDy=0;entryX=0.5;entryY=1;entryDx=0;entryDy=0;exitPerimeter=0;" parent="1" source="UD516i3Ji7gRSXzFSc0f-3" target="UD516i3Ji7gRSXzFSc0f-12" edge="1">
          <mxGeometry relative="1" as="geometry">
            <Array as="points">
              <mxPoint x="510" y="870" />
              <mxPoint x="510" y="780" />
            </Array>
          </mxGeometry>
        </mxCell>
        <mxCell id="UD516i3Ji7gRSXzFSc0f-3" value="" style="rounded=1;whiteSpace=wrap;html=1;fillColor=none;" parent="1" vertex="1">
          <mxGeometry x="-1220" y="424.99" width="1425" height="510" as="geometry" />
        </mxCell>
        <mxCell id="UD516i3Ji7gRSXzFSc0f-4" style="edgeStyle=orthogonalEdgeStyle;rounded=0;orthogonalLoop=1;jettySize=auto;html=1;exitX=0;exitY=0.25;exitDx=0;exitDy=0;entryX=0.873;entryY=-0.001;entryDx=0;entryDy=0;entryPerimeter=0;" parent="1" source="UD516i3Ji7gRSXzFSc0f-5" target="UD516i3Ji7gRSXzFSc0f-12" edge="1">
          <mxGeometry relative="1" as="geometry" />
        </mxCell>
        <mxCell id="UD516i3Ji7gRSXzFSc0f-5" value="" style="rounded=1;whiteSpace=wrap;html=1;fillColor=none;strokeColor=#000000;" parent="1" vertex="1">
          <mxGeometry x="750" y="314.39" width="1320" height="645.61" as="geometry" />
        </mxCell>
        <mxCell id="UD516i3Ji7gRSXzFSc0f-6" style="edgeStyle=orthogonalEdgeStyle;rounded=0;orthogonalLoop=1;jettySize=auto;html=1;exitX=0;exitY=0.5;exitDx=0;exitDy=0;entryX=0.75;entryY=1;entryDx=0;entryDy=0;" parent="1" source="UD516i3Ji7gRSXzFSc0f-116" target="UD516i3Ji7gRSXzFSc0f-12" edge="1">
          <mxGeometry relative="1" as="geometry">
            <Array as="points">
              <mxPoint x="566" y="1341" />
            </Array>
          </mxGeometry>
        </mxCell>
        <mxCell id="UD516i3Ji7gRSXzFSc0f-7" value="" style="rounded=1;whiteSpace=wrap;html=1;fillColor=none;" parent="1" vertex="1">
          <mxGeometry x="750.0799999999999" y="1015" width="1207.58" height="446" as="geometry" />
        </mxCell>
        <mxCell id="UD516i3Ji7gRSXzFSc0f-8" style="edgeStyle=orthogonalEdgeStyle;rounded=0;orthogonalLoop=1;jettySize=auto;html=1;exitX=0.25;exitY=0;exitDx=0;exitDy=0;entryX=0.5;entryY=1;entryDx=0;entryDy=0;entryPerimeter=0;fontSize=12;" parent="1" source="UD516i3Ji7gRSXzFSc0f-12" target="UD516i3Ji7gRSXzFSc0f-109" edge="1">
          <mxGeometry relative="1" as="geometry">
            <mxPoint x="483.0799999999999" y="330" as="targetPoint" />
          </mxGeometry>
        </mxCell>
        <mxCell id="UD516i3Ji7gRSXzFSc0f-9" style="edgeStyle=orthogonalEdgeStyle;rounded=0;orthogonalLoop=1;jettySize=auto;html=1;exitX=0.25;exitY=1;exitDx=0;exitDy=0;entryX=1;entryY=0.5;entryDx=0;entryDy=0;" parent="1" source="UD516i3Ji7gRSXzFSc0f-12" target="UD516i3Ji7gRSXzFSc0f-3" edge="1">
          <mxGeometry relative="1" as="geometry" />
        </mxCell>
        <mxCell id="UD516i3Ji7gRSXzFSc0f-10" style="edgeStyle=orthogonalEdgeStyle;rounded=0;orthogonalLoop=1;jettySize=auto;html=1;exitX=1;exitY=0.75;exitDx=0;exitDy=0;entryX=0;entryY=0.699;entryDx=0;entryDy=0;entryPerimeter=0;" parent="1" source="UD516i3Ji7gRSXzFSc0f-12" target="UD516i3Ji7gRSXzFSc0f-5" edge="1">
          <mxGeometry relative="1" as="geometry">
            <mxPoint x="710" y="764" as="targetPoint" />
          </mxGeometry>
        </mxCell>
        <mxCell id="UD516i3Ji7gRSXzFSc0f-11" style="edgeStyle=orthogonalEdgeStyle;rounded=0;orthogonalLoop=1;jettySize=auto;html=1;exitX=1;exitY=1;exitDx=0;exitDy=0;entryX=0;entryY=0.25;entryDx=0;entryDy=0;" parent="1" source="UD516i3Ji7gRSXzFSc0f-12" target="UD516i3Ji7gRSXzFSc0f-7" edge="1">
          <mxGeometry relative="1" as="geometry" />
        </mxCell>
        <mxCell id="UD516i3Ji7gRSXzFSc0f-12" value="Приложение по кредитованию банка &lt;i&gt;X&lt;/i&gt;" style="rounded=1;whiteSpace=wrap;html=1;" parent="1" vertex="1">
          <mxGeometry x="405.0799999999999" y="720" width="215" height="60" as="geometry" />
        </mxCell>
        <mxCell id="UD516i3Ji7gRSXzFSc0f-13" value="" style="endArrow=classic;html=1;rounded=0;exitX=0.5;exitY=1;exitDx=0;exitDy=0;exitPerimeter=0;entryX=0.5;entryY=0;entryDx=0;entryDy=0;" parent="1" source="UD516i3Ji7gRSXzFSc0f-14" target="UD516i3Ji7gRSXzFSc0f-12" edge="1">
          <mxGeometry width="50" height="50" relative="1" as="geometry">
            <mxPoint x="97.57999999999993" y="640" as="sourcePoint" />
            <mxPoint x="137.57999999999993" y="590" as="targetPoint" />
          </mxGeometry>
        </mxCell>
        <mxCell id="UD516i3Ji7gRSXzFSc0f-14" value="" style="points=[[0.145,0.145,0],[0.5,0,0],[0.855,0.145,0],[1,0.5,0],[0.855,0.855,0],[0.5,1,0],[0.145,0.855,0],[0,0.5,0]];shape=mxgraph.bpmn.event;html=1;verticalLabelPosition=bottom;labelBackgroundColor=#ffffff;verticalAlign=top;align=center;perimeter=ellipsePerimeter;outlineConnect=0;aspect=fixed;outline=standard;symbol=general;fillColor=#000000;" parent="1" vertex="1">
          <mxGeometry x="487.5799999999999" y="565" width="50" height="50" as="geometry" />
        </mxCell>
        <mxCell id="UD516i3Ji7gRSXzFSc0f-15" value="Вход в&amp;nbsp;&lt;br&gt;приложение" style="text;html=1;align=center;verticalAlign=middle;resizable=0;points=[];autosize=1;strokeColor=none;fillColor=none;" parent="1" vertex="1">
          <mxGeometry x="467.5799999999999" y="525" width="90" height="40" as="geometry" />
        </mxCell>
        <mxCell id="UD516i3Ji7gRSXzFSc0f-16" value="&lt;font style=&quot;font-size: 10px;&quot;&gt;Форма для регистрации&lt;br&gt;&lt;br&gt;do/заполнить форму&lt;/font&gt;" style="rounded=1;whiteSpace=wrap;html=1;" parent="1" vertex="1">
          <mxGeometry x="-210.00000000000006" y="564.99" width="150" height="60" as="geometry" />
        </mxCell>
        <mxCell id="UD516i3Ji7gRSXzFSc0f-17" style="edgeStyle=orthogonalEdgeStyle;curved=1;rounded=0;orthogonalLoop=1;jettySize=auto;html=1;exitX=0;exitY=0.5;exitDx=0;exitDy=0;entryX=1;entryY=0.5;entryDx=0;entryDy=0;" parent="1" target="UD516i3Ji7gRSXzFSc0f-19" edge="1">
          <mxGeometry relative="1" as="geometry">
            <mxPoint x="-295.00000000000006" y="594.9900000000005" as="sourcePoint" />
          </mxGeometry>
        </mxCell>
        <mxCell id="UD516i3Ji7gRSXzFSc0f-18" style="edgeStyle=orthogonalEdgeStyle;rounded=0;orthogonalLoop=1;jettySize=auto;html=1;exitX=0;exitY=0.5;exitDx=0;exitDy=0;entryX=1;entryY=0.5;entryDx=0;entryDy=0;" parent="1" source="UD516i3Ji7gRSXzFSc0f-19" target="UD516i3Ji7gRSXzFSc0f-21" edge="1">
          <mxGeometry relative="1" as="geometry" />
        </mxCell>
        <mxCell id="UD516i3Ji7gRSXzFSc0f-19" value="&lt;font style=&quot;font-size: 10px;&quot;&gt;Ввести личную информацию&lt;br&gt;entry/ открыть поле ввода&lt;br&gt;do/ ввести информ.&lt;br&gt;exit/ введено успешно&lt;/font&gt;" style="rounded=1;whiteSpace=wrap;html=1;" parent="1" vertex="1">
          <mxGeometry x="-550.0000000000001" y="564.99" width="170" height="60" as="geometry" />
        </mxCell>
        <mxCell id="Z1knhOyiOVoYuxiEUO4T-4" style="edgeStyle=orthogonalEdgeStyle;rounded=0;orthogonalLoop=1;jettySize=auto;html=1;exitX=0;exitY=0.5;exitDx=0;exitDy=0;entryX=1;entryY=0.5;entryDx=0;entryDy=0;" parent="1" source="UD516i3Ji7gRSXzFSc0f-21" target="UD516i3Ji7gRSXzFSc0f-94" edge="1">
          <mxGeometry relative="1" as="geometry" />
        </mxCell>
        <mxCell id="UD516i3Ji7gRSXzFSc0f-21" value="&lt;font style=&quot;font-size: 10px;&quot;&gt;Добавить документы идентификации&amp;nbsp;&lt;/font&gt;&lt;div&gt;&lt;font style=&quot;font-size: 10px;&quot;&gt;&lt;br&gt;&lt;/font&gt;&lt;/div&gt;&lt;div&gt;&lt;font style=&quot;font-size: 10px;&quot;&gt;do/ открыть вкладки&lt;br&gt;exit/документы прикреплены&lt;/font&gt;&lt;/div&gt;" style="rounded=1;whiteSpace=wrap;html=1;" parent="1" vertex="1">
          <mxGeometry x="-835" y="562.49" width="195" height="65.01" as="geometry" />
        </mxCell>
        <mxCell id="UD516i3Ji7gRSXzFSc0f-22" style="edgeStyle=orthogonalEdgeStyle;rounded=0;orthogonalLoop=1;jettySize=auto;html=1;exitX=0;exitY=0.5;exitDx=0;exitDy=0;entryX=1.009;entryY=0.44;entryDx=0;entryDy=0;entryPerimeter=0;" parent="1" source="UD516i3Ji7gRSXzFSc0f-23" target="UD516i3Ji7gRSXzFSc0f-25" edge="1">
          <mxGeometry relative="1" as="geometry">
            <mxPoint x="-830" y="744.99" as="targetPoint" />
            <Array as="points">
              <mxPoint x="-834" y="741.99" />
            </Array>
          </mxGeometry>
        </mxCell>
        <mxCell id="UD516i3Ji7gRSXzFSc0f-23" value="&lt;font style=&quot;font-size: 10px;&quot;&gt;&lt;span&gt;Проверка пароля и логина&lt;/span&gt;&lt;/font&gt;&lt;div&gt;&lt;font style=&quot;font-size: 10px;&quot;&gt;&lt;span&gt;&lt;br&gt;&lt;/span&gt;do/ проверяем форму&lt;/font&gt;&lt;span&gt;&lt;br&gt;&lt;/span&gt;&lt;/div&gt;" style="rounded=1;whiteSpace=wrap;html=1;" parent="1" vertex="1">
          <mxGeometry x="-740" y="711.99" width="120" height="60" as="geometry" />
        </mxCell>
        <mxCell id="UD516i3Ji7gRSXzFSc0f-24" style="edgeStyle=orthogonalEdgeStyle;rounded=0;orthogonalLoop=1;jettySize=auto;html=1;exitX=0.5;exitY=1;exitDx=0;exitDy=0;entryX=0.5;entryY=1;entryDx=0;entryDy=0;" parent="1" source="UD516i3Ji7gRSXzFSc0f-25" target="UD516i3Ji7gRSXzFSc0f-29" edge="1">
          <mxGeometry relative="1" as="geometry">
            <Array as="points">
              <mxPoint x="-892" y="864.99" />
              <mxPoint x="-169.00000000000006" y="864.99" />
            </Array>
          </mxGeometry>
        </mxCell>
        <mxCell id="UD516i3Ji7gRSXzFSc0f-25" value="&lt;font style=&quot;font-size: 10px;&quot;&gt;&lt;span&gt;Восстановить аккаунт&lt;br&gt;&lt;/span&gt;do/ вывести ошибку&lt;/font&gt;&lt;span&gt;&lt;br&gt;&lt;/span&gt;" style="rounded=1;whiteSpace=wrap;html=1;" parent="1" vertex="1">
          <mxGeometry x="-965" y="714.99" width="130" height="60" as="geometry" />
        </mxCell>
        <mxCell id="Z1knhOyiOVoYuxiEUO4T-5" style="edgeStyle=orthogonalEdgeStyle;rounded=0;orthogonalLoop=1;jettySize=auto;html=1;exitX=0;exitY=0.5;exitDx=0;exitDy=0;entryX=1;entryY=0.5;entryDx=0;entryDy=0;" parent="1" source="UD516i3Ji7gRSXzFSc0f-27" target="UD516i3Ji7gRSXzFSc0f-23" edge="1">
          <mxGeometry relative="1" as="geometry" />
        </mxCell>
        <mxCell id="UD516i3Ji7gRSXzFSc0f-27" value="&lt;span style=&quot;font-size: 10px;&quot;&gt;Ввести логин&lt;/span&gt;&lt;div&gt;&lt;span style=&quot;font-size: 10px;&quot;&gt;&lt;br&gt;do/ввести логин&lt;br&gt;&lt;/span&gt;&lt;/div&gt;" style="rounded=1;whiteSpace=wrap;html=1;" parent="1" vertex="1">
          <mxGeometry x="-459.50000000000006" y="711.99" width="120" height="60" as="geometry" />
        </mxCell>
        <mxCell id="UD516i3Ji7gRSXzFSc0f-28" style="edgeStyle=orthogonalEdgeStyle;rounded=0;orthogonalLoop=1;jettySize=auto;html=1;exitX=0;exitY=0.5;exitDx=0;exitDy=0;entryX=1;entryY=0.5;entryDx=0;entryDy=0;" parent="1" source="UD516i3Ji7gRSXzFSc0f-29" target="UD516i3Ji7gRSXzFSc0f-27" edge="1">
          <mxGeometry relative="1" as="geometry" />
        </mxCell>
        <mxCell id="UD516i3Ji7gRSXzFSc0f-29" value="&lt;span&gt;Ввести пароль&lt;br&gt;&lt;/span&gt;do/ ввести пароль&lt;span&gt;&lt;br&gt;&lt;/span&gt;" style="rounded=1;whiteSpace=wrap;html=1;" parent="1" vertex="1">
          <mxGeometry x="-229.50000000000006" y="711.99" width="120" height="60" as="geometry" />
        </mxCell>
        <mxCell id="UD516i3Ji7gRSXzFSc0f-30" style="edgeStyle=orthogonalEdgeStyle;rounded=0;orthogonalLoop=1;jettySize=auto;html=1;exitX=0;exitY=0.5;exitDx=0;exitDy=0;" parent="1" source="UD516i3Ji7gRSXzFSc0f-31" edge="1">
          <mxGeometry relative="1" as="geometry">
            <mxPoint x="1267.6599999999999" y="1341.095238095238" as="targetPoint" />
          </mxGeometry>
        </mxCell>
        <mxCell id="UD516i3Ji7gRSXzFSc0f-31" value="&lt;span style=&quot;font-size: 10px;&quot;&gt;Выбрать сумма&lt;br&gt;&lt;br&gt;do/ показать поле ввода&lt;br&gt;&lt;/span&gt;" style="rounded=1;whiteSpace=wrap;html=1;" parent="1" vertex="1">
          <mxGeometry x="1348.87" y="1311" width="120" height="60" as="geometry" />
        </mxCell>
        <mxCell id="UD516i3Ji7gRSXzFSc0f-32" style="edgeStyle=orthogonalEdgeStyle;rounded=0;orthogonalLoop=1;jettySize=auto;html=1;exitX=0;exitY=0.5;exitDx=0;exitDy=0;" parent="1" source="UD516i3Ji7gRSXzFSc0f-33" edge="1">
          <mxGeometry relative="1" as="geometry">
            <mxPoint x="1467.6599999999999" y="1341.1428571428569" as="targetPoint" />
          </mxGeometry>
        </mxCell>
        <mxCell id="UD516i3Ji7gRSXzFSc0f-33" value="&lt;span style=&quot;font-size: 10px;&quot;&gt;Выбрать тип займа&lt;br&gt;do/ отметить выбранный в списке&lt;br&gt;exit/ тип выбран&lt;br&gt;&lt;/span&gt;" style="rounded=1;whiteSpace=wrap;html=1;" parent="1" vertex="1">
          <mxGeometry x="1586.6399999999999" y="1311" width="191.02" height="60" as="geometry" />
        </mxCell>
        <mxCell id="UD516i3Ji7gRSXzFSc0f-34" style="edgeStyle=orthogonalEdgeStyle;rounded=0;orthogonalLoop=1;jettySize=auto;html=1;exitX=0.5;exitY=1;exitDx=0;exitDy=0;entryX=1;entryY=0.75;entryDx=0;entryDy=0;" parent="1" source="UD516i3Ji7gRSXzFSc0f-35" target="UD516i3Ji7gRSXzFSc0f-33" edge="1">
          <mxGeometry relative="1" as="geometry" />
        </mxCell>
        <mxCell id="UD516i3Ji7gRSXzFSc0f-35" value="&lt;font style=&quot;font-size: 10px;&quot;&gt;&lt;font style=&quot;font-size: 10px;&quot;&gt;Предоставить документы соответствующие выбранному виду займа&lt;/font&gt;&lt;font style=&quot;font-size: 10px;&quot;&gt;&lt;br&gt;do/показать поле прикрепления документов&lt;br&gt;exit/ документы прикреплены&lt;/font&gt;&lt;/font&gt;" style="rounded=1;whiteSpace=wrap;html=1;" parent="1" vertex="1">
          <mxGeometry x="1677.6599999999999" y="1151" width="260" height="61.89" as="geometry" />
        </mxCell>
        <mxCell id="UD516i3Ji7gRSXzFSc0f-36" style="edgeStyle=orthogonalEdgeStyle;rounded=0;orthogonalLoop=1;jettySize=auto;html=1;exitX=1;exitY=0.5;exitDx=0;exitDy=0;entryX=0;entryY=0.5;entryDx=0;entryDy=0;" parent="1" source="UD516i3Ji7gRSXzFSc0f-37" target="UD516i3Ji7gRSXzFSc0f-35" edge="1">
          <mxGeometry relative="1" as="geometry">
            <mxPoint x="1667.6599999999999" y="1191" as="targetPoint" />
          </mxGeometry>
        </mxCell>
        <mxCell id="UD516i3Ji7gRSXzFSc0f-37" value="&lt;font style=&quot;font-size: 10px;&quot;&gt;Выбрать тип лица, которому будут оказана услуга&lt;br&gt;do/ выбираем день из списка&lt;/font&gt;&lt;span&gt;&lt;br&gt;&lt;/span&gt;" style="rounded=1;whiteSpace=wrap;html=1;" parent="1" vertex="1">
          <mxGeometry x="1310.08" y="1152.8899999999999" width="197.58" height="60" as="geometry" />
        </mxCell>
        <mxCell id="UD516i3Ji7gRSXzFSc0f-38" style="edgeStyle=orthogonalEdgeStyle;curved=1;rounded=0;orthogonalLoop=1;jettySize=auto;html=1;exitX=1;exitY=0.5;exitDx=0;exitDy=0;entryX=0;entryY=0.5;entryDx=0;entryDy=0;" parent="1" source="UD516i3Ji7gRSXzFSc0f-39" target="UD516i3Ji7gRSXzFSc0f-37" edge="1">
          <mxGeometry relative="1" as="geometry" />
        </mxCell>
        <mxCell id="UD516i3Ji7gRSXzFSc0f-39" value="&lt;font style=&quot;font-size: 10px;&quot;&gt;&lt;font style=&quot;font-size: 10px;&quot;&gt;Оформить заявку на кредитование&lt;br&gt;&lt;/font&gt;&lt;font style=&quot;font-size: 10px;&quot;&gt;&lt;br&gt;do/ Показать поле ввода информации клиента&lt;br&gt;exit/ информация введена&lt;/font&gt;&lt;/font&gt;" style="rounded=1;whiteSpace=wrap;html=1;" parent="1" vertex="1">
          <mxGeometry x="916.0799999999999" y="1140.3300000000002" width="270" height="85.11" as="geometry" />
        </mxCell>
        <mxCell id="UD516i3Ji7gRSXzFSc0f-40" style="edgeStyle=orthogonalEdgeStyle;rounded=0;orthogonalLoop=1;jettySize=auto;html=1;exitX=1;exitY=0.5;exitDx=0;exitDy=0;entryX=0;entryY=0.5;entryDx=0;entryDy=0;" parent="1" source="UD516i3Ji7gRSXzFSc0f-41" target="UD516i3Ji7gRSXzFSc0f-60" edge="1">
          <mxGeometry relative="1" as="geometry">
            <mxPoint x="1356.08" y="689.39" as="targetPoint" />
            <Array as="points" />
          </mxGeometry>
        </mxCell>
        <mxCell id="UD516i3Ji7gRSXzFSc0f-41" value="&lt;font style=&quot;font-size: 10px;&quot;&gt;Проверить состояние счета клиента&lt;/font&gt;&lt;span&gt;&lt;br&gt;&lt;/span&gt;" style="rounded=1;whiteSpace=wrap;html=1;" parent="1" vertex="1">
          <mxGeometry x="1273.08" y="514.39" width="174" height="40" as="geometry" />
        </mxCell>
        <mxCell id="UD516i3Ji7gRSXzFSc0f-42" style="edgeStyle=orthogonalEdgeStyle;rounded=0;orthogonalLoop=1;jettySize=auto;html=1;exitX=1;exitY=0.5;exitDx=0;exitDy=0;entryX=0;entryY=0.5;entryDx=0;entryDy=0;" parent="1" source="UD516i3Ji7gRSXzFSc0f-43" target="UD516i3Ji7gRSXzFSc0f-41" edge="1">
          <mxGeometry relative="1" as="geometry">
            <mxPoint x="1265.08" y="539.39" as="sourcePoint" />
            <Array as="points">
              <mxPoint x="1154.08" y="534.39" />
            </Array>
          </mxGeometry>
        </mxCell>
        <mxCell id="UD516i3Ji7gRSXzFSc0f-43" value="&lt;font style=&quot;font-size: 10px;&quot;&gt;&lt;font style=&quot;font-size: 10px;&quot;&gt;Ответить на сообщение&lt;/font&gt;&lt;/font&gt;&lt;div&gt;&lt;font style=&quot;font-size: 10px;&quot;&gt;&lt;font style=&quot;font-size: 10px;&quot;&gt;&lt;br&gt;do/отвечаем на сообщение в чате поддержки&lt;/font&gt;&lt;/font&gt;&lt;/div&gt;" style="rounded=1;whiteSpace=wrap;html=1;" parent="1" vertex="1">
          <mxGeometry x="1001.0799999999999" y="509.39" width="153" height="60" as="geometry" />
        </mxCell>
        <mxCell id="UD516i3Ji7gRSXzFSc0f-44" style="edgeStyle=orthogonalEdgeStyle;rounded=0;orthogonalLoop=1;jettySize=auto;html=1;exitX=0;exitY=0.5;exitDx=0;exitDy=0;exitPerimeter=0;entryX=1;entryY=0.5;entryDx=0;entryDy=0;" parent="1" source="UD516i3Ji7gRSXzFSc0f-45" target="UD516i3Ji7gRSXzFSc0f-16" edge="1">
          <mxGeometry relative="1" as="geometry">
            <Array as="points">
              <mxPoint x="-25.000000000000057" y="594.99" />
            </Array>
          </mxGeometry>
        </mxCell>
        <mxCell id="UD516i3Ji7gRSXzFSc0f-45" value="" style="points=[[0.145,0.145,0],[0.5,0,0],[0.855,0.145,0],[1,0.5,0],[0.855,0.855,0],[0.5,1,0],[0.145,0.855,0],[0,0.5,0]];shape=mxgraph.bpmn.event;html=1;verticalLabelPosition=bottom;labelBackgroundColor=#ffffff;verticalAlign=top;align=center;perimeter=ellipsePerimeter;outlineConnect=0;aspect=fixed;outline=standard;symbol=general;fillColor=#000000;" parent="1" vertex="1">
          <mxGeometry x="-25.500000000000057" y="574.99" width="50" height="50" as="geometry" />
        </mxCell>
        <mxCell id="UD516i3Ji7gRSXzFSc0f-46" style="edgeStyle=orthogonalEdgeStyle;rounded=0;orthogonalLoop=1;jettySize=auto;html=1;entryX=0.19;entryY=-0.001;entryDx=0;entryDy=0;exitX=0.5;exitY=0;exitDx=0;exitDy=0;entryPerimeter=0;" parent="1" source="UD516i3Ji7gRSXzFSc0f-21" target="UD516i3Ji7gRSXzFSc0f-21" edge="1">
          <mxGeometry relative="1" as="geometry">
            <mxPoint x="-700" y="564.99" as="sourcePoint" />
            <Array as="points">
              <mxPoint x="-738" y="535" />
              <mxPoint x="-798" y="535" />
            </Array>
          </mxGeometry>
        </mxCell>
        <mxCell id="UD516i3Ji7gRSXzFSc0f-47" value="&lt;font style=&quot;font-size: 10px;&quot;&gt;Ошибка входа&lt;/font&gt;" style="text;whiteSpace=wrap;html=1;" parent="1" vertex="1">
          <mxGeometry x="-815" y="714.99" width="110" height="30" as="geometry" />
        </mxCell>
        <mxCell id="UD516i3Ji7gRSXzFSc0f-48" value="&lt;font style=&quot;font-size: 10px;&quot;&gt;Регистрация прошла успешно&lt;/font&gt;" style="text;whiteSpace=wrap;html=1;" parent="1" vertex="1">
          <mxGeometry x="-1200" y="619.99" width="170" height="30" as="geometry" />
        </mxCell>
        <mxCell id="UD516i3Ji7gRSXzFSc0f-49" value="&lt;font style=&quot;font-size: 10px;&quot;&gt;&lt;span style=&quot;text-align: center; white-space: nowrap;&quot;&gt;Прикрепление &lt;/span&gt;&lt;span style=&quot;text-align: center; white-space: nowrap;&quot;&gt;документов&lt;/span&gt;&lt;/font&gt;&lt;div&gt;&lt;font style=&quot;font-size: 10px;&quot;&gt;&amp;nbsp;[Неправильный формат документов]&lt;/font&gt;&lt;/div&gt;" style="text;whiteSpace=wrap;html=1;" parent="1" vertex="1">
          <mxGeometry x="-840" y="470" width="230" height="41.58" as="geometry" />
        </mxCell>
        <mxCell id="UD516i3Ji7gRSXzFSc0f-50" style="edgeStyle=orthogonalEdgeStyle;curved=1;rounded=0;orthogonalLoop=1;jettySize=auto;html=1;exitX=0;exitY=0.5;exitDx=0;exitDy=0;entryX=1;entryY=0.5;entryDx=0;entryDy=0;" parent="1" source="UD516i3Ji7gRSXzFSc0f-51" target="UD516i3Ji7gRSXzFSc0f-29" edge="1">
          <mxGeometry relative="1" as="geometry" />
        </mxCell>
        <mxCell id="UD516i3Ji7gRSXzFSc0f-51" value="Форма для входа в аккаунт&lt;br&gt;do/ заполнить форму" style="rounded=1;whiteSpace=wrap;html=1;" parent="1" vertex="1">
          <mxGeometry x="-34.50000000000006" y="711.99" width="150" height="60" as="geometry" />
        </mxCell>
        <mxCell id="UD516i3Ji7gRSXzFSc0f-53" value="" style="edgeStyle=orthogonalEdgeStyle;curved=1;rounded=0;orthogonalLoop=1;jettySize=auto;html=1;" parent="1" source="UD516i3Ji7gRSXzFSc0f-54" target="UD516i3Ji7gRSXzFSc0f-51" edge="1">
          <mxGeometry relative="1" as="geometry" />
        </mxCell>
        <mxCell id="UD516i3Ji7gRSXzFSc0f-54" value="" style="points=[[0.145,0.145,0],[0.5,0,0],[0.855,0.145,0],[1,0.5,0],[0.855,0.855,0],[0.5,1,0],[0.145,0.855,0],[0,0.5,0]];shape=mxgraph.bpmn.event;html=1;verticalLabelPosition=bottom;labelBackgroundColor=#ffffff;verticalAlign=top;align=center;perimeter=ellipsePerimeter;outlineConnect=0;aspect=fixed;outline=standard;symbol=general;fillColor=#000000;" parent="1" vertex="1">
          <mxGeometry x="15.499999999999943" y="836.99" width="50" height="50" as="geometry" />
        </mxCell>
        <mxCell id="UD516i3Ji7gRSXzFSc0f-55" style="edgeStyle=orthogonalEdgeStyle;curved=1;rounded=0;orthogonalLoop=1;jettySize=auto;html=1;exitX=1;exitY=0.5;exitDx=0;exitDy=0;exitPerimeter=0;entryX=0;entryY=0.5;entryDx=0;entryDy=0;" parent="1" source="UD516i3Ji7gRSXzFSc0f-56" target="UD516i3Ji7gRSXzFSc0f-39" edge="1">
          <mxGeometry relative="1" as="geometry">
            <mxPoint x="979.5799999999999" y="1182.7947619047618" as="targetPoint" />
          </mxGeometry>
        </mxCell>
        <mxCell id="UD516i3Ji7gRSXzFSc0f-56" value="" style="points=[[0.145,0.145,0],[0.5,0,0],[0.855,0.145,0],[1,0.5,0],[0.855,0.855,0],[0.5,1,0],[0.145,0.855,0],[0,0.5,0]];shape=mxgraph.bpmn.event;html=1;verticalLabelPosition=bottom;labelBackgroundColor=#ffffff;verticalAlign=top;align=center;perimeter=ellipsePerimeter;outlineConnect=0;aspect=fixed;outline=standard;symbol=general;fillColor=#000000;" parent="1" vertex="1">
          <mxGeometry x="770.0799999999999" y="1156.9499999999998" width="50" height="50" as="geometry" />
        </mxCell>
        <mxCell id="UD516i3Ji7gRSXzFSc0f-57" value="&lt;font style=&quot;font-size: 10px;&quot;&gt;Предоставление сканов&amp;nbsp;&lt;br&gt;документов&lt;/font&gt;" style="text;html=1;align=center;verticalAlign=middle;resizable=0;points=[];autosize=1;strokeColor=none;fillColor=none;" parent="1" vertex="1">
          <mxGeometry x="1514.58" y="1141" width="140" height="40" as="geometry" />
        </mxCell>
        <mxCell id="UD516i3Ji7gRSXzFSc0f-58" style="edgeStyle=orthogonalEdgeStyle;rounded=0;orthogonalLoop=1;jettySize=auto;html=1;exitX=1;exitY=0.5;exitDx=0;exitDy=0;exitPerimeter=0;entryX=0;entryY=0.5;entryDx=0;entryDy=0;" parent="1" source="UD516i3Ji7gRSXzFSc0f-59" target="UD516i3Ji7gRSXzFSc0f-43" edge="1">
          <mxGeometry relative="1" as="geometry" />
        </mxCell>
        <mxCell id="UD516i3Ji7gRSXzFSc0f-59" value="" style="points=[[0.145,0.145,0],[0.5,0,0],[0.855,0.145,0],[1,0.5,0],[0.855,0.855,0],[0.5,1,0],[0.145,0.855,0],[0,0.5,0]];shape=mxgraph.bpmn.event;html=1;verticalLabelPosition=bottom;labelBackgroundColor=#ffffff;verticalAlign=top;align=center;perimeter=ellipsePerimeter;outlineConnect=0;aspect=fixed;outline=standard;symbol=general;fillColor=#000000;" parent="1" vertex="1">
          <mxGeometry x="760.0799999999999" y="514.39" width="50" height="50" as="geometry" />
        </mxCell>
        <mxCell id="UD516i3Ji7gRSXzFSc0f-60" value="&lt;font style=&quot;font-size: 10px;&quot;&gt;Узнать историю операций&lt;/font&gt;&lt;div&gt;&lt;font style=&quot;font-size: 10px;&quot;&gt;&lt;span&gt;&lt;br&gt;&lt;/span&gt;do/открываем поле истории счета клиента&lt;/font&gt;&lt;span&gt;&lt;br&gt;&lt;/span&gt;&lt;/div&gt;" style="rounded=1;whiteSpace=wrap;html=1;" parent="1" vertex="1">
          <mxGeometry x="1577.08" y="511.58" width="212" height="45.61" as="geometry" />
        </mxCell>
        <mxCell id="UD516i3Ji7gRSXzFSc0f-61" value="&lt;font style=&quot;font-size: 10px;&quot;&gt;Ввод личной информации&lt;/font&gt;" style="text;html=1;align=center;verticalAlign=middle;resizable=0;points=[];autosize=1;strokeColor=none;fillColor=none;" parent="1" vertex="1">
          <mxGeometry x="-370.00000000000006" y="569.99" width="150" height="30" as="geometry" />
        </mxCell>
        <mxCell id="UD516i3Ji7gRSXzFSc0f-62" value="&lt;font style=&quot;font-size: 10px;&quot;&gt;Прикрепление&amp;nbsp;&lt;br&gt;документов&lt;/font&gt;" style="text;html=1;align=center;verticalAlign=middle;resizable=0;points=[];autosize=1;strokeColor=none;fillColor=none;" parent="1" vertex="1">
          <mxGeometry x="-642.4200000000001" y="559.99" width="100" height="40" as="geometry" />
        </mxCell>
        <mxCell id="UD516i3Ji7gRSXzFSc0f-63" value="Ввод логина (n)" style="text;html=1;align=center;verticalAlign=middle;resizable=0;points=[];autosize=1;strokeColor=none;fillColor=none;" parent="1" vertex="1">
          <mxGeometry x="-330.00000000000006" y="710" width="110" height="30" as="geometry" />
        </mxCell>
        <mxCell id="UD516i3Ji7gRSXzFSc0f-64" value="&lt;font style=&quot;font-size: 10px;&quot;&gt;Отправки формы на проверку(n)&lt;/font&gt;" style="text;html=1;align=center;verticalAlign=middle;resizable=0;points=[];autosize=1;strokeColor=none;fillColor=none;" parent="1" vertex="1">
          <mxGeometry x="-620" y="710" width="180" height="30" as="geometry" />
        </mxCell>
        <mxCell id="UD516i3Ji7gRSXzFSc0f-65" value="&lt;font style=&quot;font-size: 10px;&quot;&gt;Ввод пароля (n) &lt;br&gt;[неправильный пароль или логин]&lt;/font&gt;" style="text;html=1;align=center;verticalAlign=middle;resizable=0;points=[];autosize=1;strokeColor=none;fillColor=none;" parent="1" vertex="1">
          <mxGeometry x="-775" y="800.61" width="180" height="40" as="geometry" />
        </mxCell>
        <mxCell id="UD516i3Ji7gRSXzFSc0f-66" value="Восстановление аккаунта&lt;br&gt;Повторный ввод пароля" style="text;html=1;align=center;verticalAlign=middle;resizable=0;points=[];autosize=1;strokeColor=none;fillColor=none;" parent="1" vertex="1">
          <mxGeometry x="-495.00000000000006" y="864.99" width="170" height="40" as="geometry" />
        </mxCell>
        <mxCell id="UD516i3Ji7gRSXzFSc0f-67" value="&lt;font style=&quot;font-size: 10px;&quot;&gt;Отправка&lt;br&gt;заявки на кредит&lt;/font&gt;" style="text;html=1;align=center;verticalAlign=middle;resizable=0;points=[];autosize=1;strokeColor=none;fillColor=none;" parent="1" vertex="1">
          <mxGeometry x="810.0799999999999" y="1146" width="110" height="40" as="geometry" />
        </mxCell>
        <mxCell id="UD516i3Ji7gRSXzFSc0f-68" value="Выбор типа лица" style="text;html=1;align=center;verticalAlign=middle;resizable=0;points=[];autosize=1;strokeColor=none;fillColor=none;" parent="1" vertex="1">
          <mxGeometry x="1191.08" y="1161" width="120" height="30" as="geometry" />
        </mxCell>
        <mxCell id="UD516i3Ji7gRSXzFSc0f-69" value="&lt;font style=&quot;font-size: 10px;&quot;&gt;Оформление заявки(n)&lt;br&gt;[Основные данные не введены]&lt;/font&gt;" style="text;html=1;align=center;verticalAlign=middle;resizable=0;points=[];autosize=1;strokeColor=none;fillColor=none;" parent="1" vertex="1">
          <mxGeometry x="1090.58" y="1082.89" width="170" height="40" as="geometry" />
        </mxCell>
        <mxCell id="UD516i3Ji7gRSXzFSc0f-70" value="&lt;span&gt;&lt;font style=&quot;font-size: 10px;&quot;&gt;Ответ на сообщение&lt;/font&gt;&lt;/span&gt;" style="text;html=1;align=center;verticalAlign=middle;resizable=0;points=[];autosize=1;strokeColor=none;fillColor=none;" parent="1" vertex="1">
          <mxGeometry x="848.0799999999999" y="509.39" width="120" height="30" as="geometry" />
        </mxCell>
        <mxCell id="UD516i3Ji7gRSXzFSc0f-71" value="&lt;font style=&quot;font-size: 10px;&quot;&gt;Изучение истории&lt;br&gt;операций&lt;/font&gt;" style="text;html=1;align=center;verticalAlign=middle;resizable=0;points=[];autosize=1;strokeColor=none;fillColor=none;" parent="1" vertex="1">
          <mxGeometry x="1452.08" y="495" width="110" height="40" as="geometry" />
        </mxCell>
        <mxCell id="UD516i3Ji7gRSXzFSc0f-72" value="&lt;font style=&quot;font-size: 20px;&quot;&gt;&lt;i&gt;Оформить заявку на кредитование&lt;/i&gt;&lt;/font&gt;" style="text;html=1;strokeColor=none;fillColor=none;align=center;verticalAlign=middle;whiteSpace=wrap;rounded=0;" parent="1" vertex="1">
          <mxGeometry x="905.0799999999999" y="1015" width="820" height="30" as="geometry" />
        </mxCell>
        <mxCell id="UD516i3Ji7gRSXzFSc0f-73" value="" style="endArrow=none;html=1;rounded=0;curved=1;entryX=0.988;entryY=0.059;entryDx=0;entryDy=0;entryPerimeter=0;exitX=0.013;exitY=0.055;exitDx=0;exitDy=0;exitPerimeter=0;" parent="1" source="UD516i3Ji7gRSXzFSc0f-7" target="UD516i3Ji7gRSXzFSc0f-7" edge="1">
          <mxGeometry width="50" height="50" relative="1" as="geometry">
            <mxPoint x="760.0799999999999" y="1041" as="sourcePoint" />
            <mxPoint x="1450.08" y="1218" as="targetPoint" />
          </mxGeometry>
        </mxCell>
        <mxCell id="UD516i3Ji7gRSXzFSc0f-74" value="Выход из приложения" style="text;html=1;align=center;verticalAlign=middle;resizable=0;points=[];autosize=1;strokeColor=none;fillColor=none;fontSize=12;" parent="1" vertex="1">
          <mxGeometry x="384.5799999999999" y="284.39" width="150" height="30" as="geometry" />
        </mxCell>
        <mxCell id="UD516i3Ji7gRSXzFSc0f-75" style="edgeStyle=orthogonalEdgeStyle;rounded=0;orthogonalLoop=1;jettySize=auto;html=1;exitX=1;exitY=0.25;exitDx=0;exitDy=0;entryX=0.75;entryY=0;entryDx=0;entryDy=0;fontSize=12;" parent="1" source="UD516i3Ji7gRSXzFSc0f-39" target="UD516i3Ji7gRSXzFSc0f-39" edge="1">
          <mxGeometry relative="1" as="geometry">
            <Array as="points">
              <mxPoint x="1205.8899999999999" y="1162" />
              <mxPoint x="1205.8899999999999" y="1128" />
              <mxPoint x="1118.8899999999999" y="1128" />
            </Array>
          </mxGeometry>
        </mxCell>
        <mxCell id="UD516i3Ji7gRSXzFSc0f-76" value="&lt;span style=&quot;color: rgb(0, 0, 0); font-family: helvetica; font-size: 10px; font-style: normal; font-weight: 400; letter-spacing: normal; text-align: center; text-indent: 0px; text-transform: none; word-spacing: 0px; background-color: rgb(248, 249, 250); display: inline; float: none;&quot;&gt;Выбрать тип займа/&lt;br&gt;[займ не предоставляется выбранному лицу]/[тип займа не был выбран]&lt;br&gt;&lt;/span&gt;" style="text;whiteSpace=wrap;html=1;fontSize=12;" parent="1" vertex="1">
          <mxGeometry x="1517.6599999999999" y="1371" width="470" height="47.11" as="geometry" />
        </mxCell>
        <mxCell id="UD516i3Ji7gRSXzFSc0f-77" value="" style="endArrow=none;html=1;rounded=0;fontSize=12;curved=1;entryX=1;entryY=0.5;entryDx=0;entryDy=0;exitX=0;exitY=0.5;exitDx=0;exitDy=0;" parent="1" source="UD516i3Ji7gRSXzFSc0f-16" target="UD516i3Ji7gRSXzFSc0f-16" edge="1">
          <mxGeometry width="50" height="50" relative="1" as="geometry">
            <mxPoint x="14.999999999999943" y="593.9399999999998" as="sourcePoint" />
            <mxPoint x="114.99999999999989" y="593.94" as="targetPoint" />
          </mxGeometry>
        </mxCell>
        <mxCell id="UD516i3Ji7gRSXzFSc0f-78" value="" style="endArrow=none;html=1;rounded=0;fontSize=12;curved=1;entryX=0;entryY=0.5;entryDx=0;entryDy=0;" parent="1" target="UD516i3Ji7gRSXzFSc0f-16" edge="1">
          <mxGeometry width="50" height="50" relative="1" as="geometry">
            <mxPoint x="-295.00000000000006" y="594.9900000000005" as="sourcePoint" />
            <mxPoint x="-115.00000000000006" y="594.99" as="targetPoint" />
          </mxGeometry>
        </mxCell>
        <mxCell id="UD516i3Ji7gRSXzFSc0f-79" value="" style="endArrow=none;html=1;rounded=0;fontSize=12;curved=1;entryX=1;entryY=0.25;entryDx=0;entryDy=0;exitX=0;exitY=0.25;exitDx=0;exitDy=0;" parent="1" source="UD516i3Ji7gRSXzFSc0f-19" target="UD516i3Ji7gRSXzFSc0f-19" edge="1">
          <mxGeometry width="50" height="50" relative="1" as="geometry">
            <mxPoint x="-550.0000000000001" y="594.99" as="sourcePoint" />
            <mxPoint x="-370.0000000000005" y="594.99" as="targetPoint" />
          </mxGeometry>
        </mxCell>
        <mxCell id="UD516i3Ji7gRSXzFSc0f-80" value="" style="endArrow=none;html=1;rounded=0;fontSize=12;curved=1;entryX=1;entryY=0.25;entryDx=0;entryDy=0;exitX=0;exitY=0.25;exitDx=0;exitDy=0;" parent="1" source="UD516i3Ji7gRSXzFSc0f-21" target="UD516i3Ji7gRSXzFSc0f-21" edge="1">
          <mxGeometry width="50" height="50" relative="1" as="geometry">
            <mxPoint x="-835" y="583.9400000000003" as="sourcePoint" />
            <mxPoint x="-690" y="583.99" as="targetPoint" />
          </mxGeometry>
        </mxCell>
        <mxCell id="UD516i3Ji7gRSXzFSc0f-81" value="" style="endArrow=none;html=1;rounded=0;fontSize=12;curved=1;entryX=0.999;entryY=0.66;entryDx=0;entryDy=0;entryPerimeter=0;" parent="1" target="UD516i3Ji7gRSXzFSc0f-51" edge="1">
          <mxGeometry width="50" height="50" relative="1" as="geometry">
            <mxPoint x="-35.00000000000006" y="751.1200000000001" as="sourcePoint" />
            <mxPoint x="110.49999999999989" y="750.99" as="targetPoint" />
          </mxGeometry>
        </mxCell>
        <mxCell id="UD516i3Ji7gRSXzFSc0f-82" value="" style="endArrow=none;html=1;rounded=0;fontSize=12;curved=1;" parent="1" edge="1">
          <mxGeometry width="50" height="50" relative="1" as="geometry">
            <mxPoint x="-229.49999999999915" y="741.99" as="sourcePoint" />
            <mxPoint x="-109.49999999999915" y="741.99" as="targetPoint" />
          </mxGeometry>
        </mxCell>
        <mxCell id="UD516i3Ji7gRSXzFSc0f-83" value="" style="endArrow=none;html=1;rounded=0;fontSize=12;curved=1;" parent="1" edge="1">
          <mxGeometry width="50" height="50" relative="1" as="geometry">
            <mxPoint x="-459.49999999999915" y="741.99" as="sourcePoint" />
            <mxPoint x="-339.49999999999915" y="741.99" as="targetPoint" />
          </mxGeometry>
        </mxCell>
        <mxCell id="UD516i3Ji7gRSXzFSc0f-84" value="" style="endArrow=none;html=1;rounded=0;fontSize=12;curved=1;entryX=1;entryY=0.5;entryDx=0;entryDy=0;exitX=0;exitY=0.5;exitDx=0;exitDy=0;" parent="1" source="UD516i3Ji7gRSXzFSc0f-25" target="UD516i3Ji7gRSXzFSc0f-25" edge="1">
          <mxGeometry width="50" height="50" relative="1" as="geometry">
            <mxPoint x="-279.50000000000006" y="871.74" as="sourcePoint" />
            <mxPoint x="-159.50000000000006" y="871.74" as="targetPoint" />
          </mxGeometry>
        </mxCell>
        <mxCell id="UD516i3Ji7gRSXzFSc0f-85" value="" style="endArrow=none;html=1;rounded=0;fontSize=12;curved=1;exitX=-0.003;exitY=0.656;exitDx=0;exitDy=0;exitPerimeter=0;entryX=1;entryY=0.656;entryDx=0;entryDy=0;entryPerimeter=0;" parent="1" source="UD516i3Ji7gRSXzFSc0f-37" target="UD516i3Ji7gRSXzFSc0f-37" edge="1">
          <mxGeometry width="50" height="50" relative="1" as="geometry">
            <mxPoint x="1310.0800000000004" y="1175.8899999999994" as="sourcePoint" />
            <mxPoint x="1430.0800000000004" y="1175.8899999999994" as="targetPoint" />
          </mxGeometry>
        </mxCell>
        <mxCell id="UD516i3Ji7gRSXzFSc0f-86" value="" style="endArrow=none;html=1;rounded=0;fontSize=12;edgeStyle=orthogonalEdgeStyle;exitX=0;exitY=0.5;exitDx=0;exitDy=0;entryX=1.006;entryY=0.407;entryDx=0;entryDy=0;entryPerimeter=0;" parent="1" source="UD516i3Ji7gRSXzFSc0f-33" target="UD516i3Ji7gRSXzFSc0f-33" edge="1">
          <mxGeometry width="50" height="50" relative="1" as="geometry">
            <mxPoint x="1624.83" y="1334.9999999999995" as="sourcePoint" />
            <mxPoint x="1736.6399999999999" y="1331.1100000000001" as="targetPoint" />
            <Array as="points">
              <mxPoint x="1586.6399999999999" y="1335.1100000000001" />
            </Array>
          </mxGeometry>
        </mxCell>
        <mxCell id="UD516i3Ji7gRSXzFSc0f-87" value="" style="endArrow=none;html=1;rounded=0;fontSize=12;edgeStyle=orthogonalEdgeStyle;entryX=1;entryY=0.5;entryDx=0;entryDy=0;" parent="1" target="UD516i3Ji7gRSXzFSc0f-31" edge="1">
          <mxGeometry width="50" height="50" relative="1" as="geometry">
            <mxPoint x="1347.6599999999999" y="1340.9999999999995" as="sourcePoint" />
            <mxPoint x="1427.6600000000003" y="1340.6399999999994" as="targetPoint" />
            <Array as="points">
              <mxPoint x="1417.6599999999999" y="1341" />
              <mxPoint x="1417.6599999999999" y="1341" />
            </Array>
          </mxGeometry>
        </mxCell>
        <mxCell id="UD516i3Ji7gRSXzFSc0f-88" value="" style="endArrow=none;html=1;rounded=0;fontSize=12;curved=1;entryX=1.001;entryY=0.398;entryDx=0;entryDy=0;entryPerimeter=0;" parent="1" target="UD516i3Ji7gRSXzFSc0f-39" edge="1">
          <mxGeometry width="50" height="50" relative="1" as="geometry">
            <mxPoint x="915.079999999999" y="1172.8899999999994" as="sourcePoint" />
            <mxPoint x="1035.08" y="1172.8899999999999" as="targetPoint" />
          </mxGeometry>
        </mxCell>
        <mxCell id="UD516i3Ji7gRSXzFSc0f-89" value="" style="endArrow=none;html=1;rounded=0;fontSize=12;entryX=1;entryY=0.5;entryDx=0;entryDy=0;edgeStyle=orthogonalEdgeStyle;" parent="1" target="UD516i3Ji7gRSXzFSc0f-35" edge="1">
          <mxGeometry width="50" height="50" relative="1" as="geometry">
            <mxPoint x="1677.6600000000008" y="1176.1100000000001" as="sourcePoint" />
            <mxPoint x="1797.6599999999999" y="1176.1100000000001" as="targetPoint" />
            <Array as="points">
              <mxPoint x="1677.6599999999999" y="1182" />
            </Array>
          </mxGeometry>
        </mxCell>
        <mxCell id="UD516i3Ji7gRSXzFSc0f-90" value="" style="endArrow=none;html=1;rounded=0;fontSize=12;curved=1;entryX=1;entryY=0.25;entryDx=0;entryDy=0;exitX=0;exitY=0.25;exitDx=0;exitDy=0;" parent="1" source="UD516i3Ji7gRSXzFSc0f-43" target="UD516i3Ji7gRSXzFSc0f-43" edge="1">
          <mxGeometry width="50" height="50" relative="1" as="geometry">
            <mxPoint x="1003.5799999999999" y="549.39" as="sourcePoint" />
            <mxPoint x="1123.58" y="549.39" as="targetPoint" />
          </mxGeometry>
        </mxCell>
        <mxCell id="UD516i3Ji7gRSXzFSc0f-91" value="" style="endArrow=none;html=1;rounded=0;fontSize=12;curved=1;exitX=-0.001;exitY=0.332;exitDx=0;exitDy=0;exitPerimeter=0;" parent="1" source="UD516i3Ji7gRSXzFSc0f-60" edge="1">
          <mxGeometry width="50" height="50" relative="1" as="geometry">
            <mxPoint x="1623.0800000000008" y="518.9699999999998" as="sourcePoint" />
            <mxPoint x="1790" y="527" as="targetPoint" />
          </mxGeometry>
        </mxCell>
        <mxCell id="UD516i3Ji7gRSXzFSc0f-92" value="&lt;font style=&quot;font-size: 10px;&quot;&gt;Взаимодействия с аккаунтом&lt;/font&gt;" style="text;html=1;align=center;verticalAlign=middle;resizable=0;points=[];autosize=1;strokeColor=none;fillColor=none;fontSize=12;" parent="1" vertex="1">
          <mxGeometry x="-65.00000000000006" y="499.99" width="160" height="30" as="geometry" />
        </mxCell>
        <mxCell id="UD516i3Ji7gRSXzFSc0f-93" style="edgeStyle=orthogonalEdgeStyle;rounded=0;orthogonalLoop=1;jettySize=auto;html=1;exitX=0;exitY=0.5;exitDx=0;exitDy=0;entryX=1;entryY=0.5;entryDx=0;entryDy=0;entryPerimeter=0;" parent="1" source="UD516i3Ji7gRSXzFSc0f-94" target="UD516i3Ji7gRSXzFSc0f-98" edge="1">
          <mxGeometry relative="1" as="geometry" />
        </mxCell>
        <mxCell id="UD516i3Ji7gRSXzFSc0f-94" value="&lt;font style=&quot;font-size: 10px;&quot;&gt;&lt;font style=&quot;font-size: 10px;&quot;&gt;Ввести контактную информацию&lt;br&gt;&lt;/font&gt;entry/ открыть поле ввода&lt;br&gt;do/ ввести эл.почту&lt;br&gt;exit/проверить почту&lt;/font&gt;" style="rounded=1;whiteSpace=wrap;html=1;" parent="1" vertex="1">
          <mxGeometry x="-1090" y="564.99" width="200" height="60" as="geometry" />
        </mxCell>
        <mxCell id="UD516i3Ji7gRSXzFSc0f-95" value="" style="endArrow=none;html=1;rounded=0;fontSize=12;curved=1;entryX=1;entryY=0.25;entryDx=0;entryDy=0;exitX=0;exitY=0.25;exitDx=0;exitDy=0;" parent="1" source="UD516i3Ji7gRSXzFSc0f-94" target="UD516i3Ji7gRSXzFSc0f-94" edge="1">
          <mxGeometry width="50" height="50" relative="1" as="geometry">
            <mxPoint x="-825" y="598.9399999999998" as="sourcePoint" />
            <mxPoint x="-674.4000000000001" y="600.21" as="targetPoint" />
          </mxGeometry>
        </mxCell>
        <mxCell id="UD516i3Ji7gRSXzFSc0f-96" style="edgeStyle=orthogonalEdgeStyle;rounded=0;orthogonalLoop=1;jettySize=auto;html=1;exitX=0.75;exitY=0;exitDx=0;exitDy=0;entryX=0;entryY=0.25;entryDx=0;entryDy=0;" parent="1" source="UD516i3Ji7gRSXzFSc0f-94" target="UD516i3Ji7gRSXzFSc0f-94" edge="1">
          <mxGeometry relative="1" as="geometry">
            <Array as="points">
              <mxPoint x="-940" y="544.99" />
              <mxPoint x="-1110" y="544.99" />
              <mxPoint x="-1110" y="579.99" />
            </Array>
          </mxGeometry>
        </mxCell>
        <mxCell id="UD516i3Ji7gRSXzFSc0f-97" value="&lt;font style=&quot;font-size: 10px;&quot;&gt;Ввод почты [почта неправильная]&lt;/font&gt;" style="text;whiteSpace=wrap;html=1;" parent="1" vertex="1">
          <mxGeometry x="-1110" y="524.99" width="230" height="30" as="geometry" />
        </mxCell>
        <mxCell id="UD516i3Ji7gRSXzFSc0f-98" value="" style="points=[[0.145,0.145,0],[0.5,0,0],[0.855,0.145,0],[1,0.5,0],[0.855,0.855,0],[0.5,1,0],[0.145,0.855,0],[0,0.5,0]];shape=mxgraph.bpmn.event;html=1;verticalLabelPosition=bottom;labelBackgroundColor=#ffffff;verticalAlign=top;align=center;perimeter=ellipsePerimeter;outlineConnect=0;aspect=fixed;outline=end;symbol=terminate2;" parent="1" vertex="1">
          <mxGeometry x="-1200" y="569.99" width="50" height="50" as="geometry" />
        </mxCell>
        <mxCell id="UD516i3Ji7gRSXzFSc0f-99" value="&lt;font style=&quot;font-size: 10px;&quot;&gt;Ввод контактной информации&lt;/font&gt;" style="text;html=1;align=center;verticalAlign=middle;resizable=0;points=[];autosize=1;strokeColor=none;fillColor=none;" parent="1" vertex="1">
          <mxGeometry x="-950" y="645" width="170" height="30" as="geometry" />
        </mxCell>
        <mxCell id="UD516i3Ji7gRSXzFSc0f-100" value="" style="endArrow=none;html=1;rounded=0;fontSize=12;curved=1;exitX=0;exitY=0.5;exitDx=0;exitDy=0;" parent="1" source="UD516i3Ji7gRSXzFSc0f-23" edge="1">
          <mxGeometry width="50" height="50" relative="1" as="geometry">
            <mxPoint x="-741" y="740" as="sourcePoint" />
            <mxPoint x="-620" y="742" as="targetPoint" />
          </mxGeometry>
        </mxCell>
        <mxCell id="UD516i3Ji7gRSXzFSc0f-101" style="edgeStyle=orthogonalEdgeStyle;rounded=0;orthogonalLoop=1;jettySize=auto;html=1;exitX=0;exitY=0.5;exitDx=0;exitDy=0;entryX=1;entryY=0.5;entryDx=0;entryDy=0;entryPerimeter=0;" parent="1" source="UD516i3Ji7gRSXzFSc0f-25" target="UD516i3Ji7gRSXzFSc0f-102" edge="1">
          <mxGeometry relative="1" as="geometry">
            <mxPoint x="-957" y="754.99" as="sourcePoint" />
          </mxGeometry>
        </mxCell>
        <mxCell id="UD516i3Ji7gRSXzFSc0f-102" value="" style="points=[[0.145,0.145,0],[0.5,0,0],[0.855,0.145,0],[1,0.5,0],[0.855,0.855,0],[0.5,1,0],[0.145,0.855,0],[0,0.5,0]];shape=mxgraph.bpmn.event;html=1;verticalLabelPosition=bottom;labelBackgroundColor=#ffffff;verticalAlign=top;align=center;perimeter=ellipsePerimeter;outlineConnect=0;aspect=fixed;outline=end;symbol=terminate2;" parent="1" vertex="1">
          <mxGeometry x="-1160" y="719.99" width="50" height="50" as="geometry" />
        </mxCell>
        <mxCell id="UD516i3Ji7gRSXzFSc0f-103" value="&lt;font style=&quot;font-size: 10px;&quot;&gt;Вход в аккаунт&lt;/font&gt;" style="text;whiteSpace=wrap;html=1;" parent="1" vertex="1">
          <mxGeometry x="-1090" y="714.99" width="120" height="30" as="geometry" />
        </mxCell>
        <mxCell id="UD516i3Ji7gRSXzFSc0f-104" value="" style="endArrow=none;dashed=1;html=1;rounded=0;curved=1;exitX=0;exitY=0.5;exitDx=0;exitDy=0;entryX=1;entryY=0.5;entryDx=0;entryDy=0;" parent="1" source="UD516i3Ji7gRSXzFSc0f-3" target="UD516i3Ji7gRSXzFSc0f-3" edge="1">
          <mxGeometry width="50" height="50" relative="1" as="geometry">
            <mxPoint x="-1050" y="674.9900000000002" as="sourcePoint" />
            <mxPoint x="168.47000000000014" y="676.81" as="targetPoint" />
            <Array as="points">
              <mxPoint x="-880" y="680" />
            </Array>
          </mxGeometry>
        </mxCell>
        <mxCell id="UD516i3Ji7gRSXzFSc0f-105" value="&lt;i&gt;&lt;font style=&quot;font-size: 20px;&quot;&gt;Действия гостя и зарегистрированного пользователя с аккаунтом&lt;/font&gt;&lt;/i&gt;" style="text;html=1;strokeColor=none;fillColor=none;align=center;verticalAlign=middle;whiteSpace=wrap;rounded=0;" parent="1" vertex="1">
          <mxGeometry x="-952.51" y="433.8800000000001" width="820" height="30" as="geometry" />
        </mxCell>
        <mxCell id="UD516i3Ji7gRSXzFSc0f-106" value="" style="endArrow=none;html=1;rounded=0;curved=1;exitX=0.005;exitY=0.08;exitDx=0;exitDy=0;exitPerimeter=0;entryX=0.994;entryY=0.075;entryDx=0;entryDy=0;entryPerimeter=0;" parent="1" source="UD516i3Ji7gRSXzFSc0f-3" target="UD516i3Ji7gRSXzFSc0f-3" edge="1">
          <mxGeometry width="50" height="50" relative="1" as="geometry">
            <mxPoint x="-1123.3100000000004" y="469.3900000000003" as="sourcePoint" />
            <mxPoint x="39.5000000000004" y="466.66000000000076" as="targetPoint" />
          </mxGeometry>
        </mxCell>
        <mxCell id="UD516i3Ji7gRSXzFSc0f-107" value="&lt;i&gt;&lt;font style=&quot;font-size: 20px;&quot;&gt;Проверка состояния счета клиента&lt;/font&gt;&lt;/i&gt;" style="text;html=1;strokeColor=none;fillColor=none;align=center;verticalAlign=middle;whiteSpace=wrap;rounded=0;" parent="1" vertex="1">
          <mxGeometry x="915.15" y="340" width="820" height="30" as="geometry" />
        </mxCell>
        <mxCell id="UD516i3Ji7gRSXzFSc0f-108" value="" style="endArrow=none;html=1;rounded=0;curved=1;exitX=0.001;exitY=0.124;exitDx=0;exitDy=0;exitPerimeter=0;entryX=1;entryY=0.119;entryDx=0;entryDy=0;entryPerimeter=0;" parent="1" source="UD516i3Ji7gRSXzFSc0f-5" target="UD516i3Ji7gRSXzFSc0f-5" edge="1">
          <mxGeometry width="50" height="50" relative="1" as="geometry">
            <mxPoint x="733.079999999999" y="372.0899999999998" as="sourcePoint" />
            <mxPoint x="1895.8899999999999" y="369.99000000000035" as="targetPoint" />
          </mxGeometry>
        </mxCell>
        <mxCell id="UD516i3Ji7gRSXzFSc0f-109" value="" style="points=[[0.145,0.145,0],[0.5,0,0],[0.855,0.145,0],[1,0.5,0],[0.855,0.855,0],[0.5,1,0],[0.145,0.855,0],[0,0.5,0]];shape=mxgraph.bpmn.event;html=1;verticalLabelPosition=bottom;labelBackgroundColor=#ffffff;verticalAlign=top;align=center;perimeter=ellipsePerimeter;outlineConnect=0;aspect=fixed;outline=end;symbol=terminate2;" parent="1" vertex="1">
          <mxGeometry x="434.5799999999999" y="320" width="50" height="50" as="geometry" />
        </mxCell>
        <mxCell id="UD516i3Ji7gRSXzFSc0f-110" style="edgeStyle=orthogonalEdgeStyle;rounded=0;orthogonalLoop=1;jettySize=auto;html=1;exitX=0.75;exitY=0;exitDx=0;exitDy=0;entryX=0.25;entryY=0;entryDx=0;entryDy=0;" parent="1" source="UD516i3Ji7gRSXzFSc0f-35" target="UD516i3Ji7gRSXzFSc0f-35" edge="1">
          <mxGeometry relative="1" as="geometry">
            <Array as="points">
              <mxPoint x="1872.6599999999999" y="1131" />
              <mxPoint x="1742.6599999999999" y="1131" />
            </Array>
          </mxGeometry>
        </mxCell>
        <mxCell id="UD516i3Ji7gRSXzFSc0f-111" value="&lt;font style=&quot;font-size: 10px;&quot;&gt;Прикрепление документов&lt;br&gt;[не все документы прикреплены]&lt;br&gt;[неправильный формат документов]&lt;/font&gt;" style="text;html=1;align=center;verticalAlign=middle;resizable=0;points=[];autosize=1;strokeColor=none;fillColor=none;" parent="1" vertex="1">
          <mxGeometry x="1707.6599999999999" y="1072.8899999999999" width="200" height="60" as="geometry" />
        </mxCell>
        <mxCell id="UD516i3Ji7gRSXzFSc0f-112" style="edgeStyle=orthogonalEdgeStyle;rounded=0;orthogonalLoop=1;jettySize=auto;html=1;exitX=0.25;exitY=1;exitDx=0;exitDy=0;entryX=0.75;entryY=1;entryDx=0;entryDy=0;" parent="1" source="UD516i3Ji7gRSXzFSc0f-33" target="UD516i3Ji7gRSXzFSc0f-33" edge="1">
          <mxGeometry relative="1" as="geometry" />
        </mxCell>
        <mxCell id="UD516i3Ji7gRSXzFSc0f-113" value="&lt;font style=&quot;font-size: 10px;&quot;&gt;Выбор типа займа&lt;/font&gt;" style="text;html=1;align=center;verticalAlign=middle;resizable=0;points=[];autosize=1;strokeColor=none;fillColor=none;" parent="1" vertex="1">
          <mxGeometry x="1762.6599999999999" y="1276" width="110" height="30" as="geometry" />
        </mxCell>
        <mxCell id="UD516i3Ji7gRSXzFSc0f-114" value="&lt;font style=&quot;font-size: 10px;&quot;&gt;Ввод суммы займа&lt;/font&gt;" style="text;html=1;align=center;verticalAlign=middle;resizable=0;points=[];autosize=1;strokeColor=none;fillColor=none;" parent="1" vertex="1">
          <mxGeometry x="1472.87" y="1314" width="110" height="30" as="geometry" />
        </mxCell>
        <mxCell id="UD516i3Ji7gRSXzFSc0f-115" value="" style="endArrow=none;html=1;rounded=0;fontSize=12;edgeStyle=orthogonalEdgeStyle;entryX=1;entryY=0.5;entryDx=0;entryDy=0;startArrow=none;" parent="1" source="UD516i3Ji7gRSXzFSc0f-116" edge="1">
          <mxGeometry width="50" height="50" relative="1" as="geometry">
            <mxPoint x="1136.4499999999996" y="1335.7599999999998" as="sourcePoint" />
            <mxPoint x="1257.6599999999999" y="1335.7599999999998" as="targetPoint" />
            <Array as="points">
              <mxPoint x="1226.4499999999998" y="1335.76" />
            </Array>
          </mxGeometry>
        </mxCell>
        <mxCell id="UD516i3Ji7gRSXzFSc0f-116" value="&lt;span style=&quot;font-size: 10px;&quot;&gt;Отправляем запрос на подтверждение&lt;br&gt;exit/уведомление об отправке&lt;br&gt;&lt;/span&gt;" style="rounded=1;whiteSpace=wrap;html=1;" parent="1" vertex="1">
          <mxGeometry x="1150.58" y="1311" width="120" height="60" as="geometry" />
        </mxCell>
        <mxCell id="UD516i3Ji7gRSXzFSc0f-117" value="" style="endArrow=none;html=1;rounded=0;fontSize=12;edgeStyle=orthogonalEdgeStyle;entryX=1;entryY=0.5;entryDx=0;entryDy=0;exitX=0;exitY=0.5;exitDx=0;exitDy=0;" parent="1" source="UD516i3Ji7gRSXzFSc0f-116" target="UD516i3Ji7gRSXzFSc0f-116" edge="1">
          <mxGeometry width="50" height="50" relative="1" as="geometry">
            <mxPoint x="1157.6599999999999" y="1341" as="sourcePoint" />
            <mxPoint x="1257.6599999999999" y="1335.76" as="targetPoint" />
            <Array as="points" />
          </mxGeometry>
        </mxCell>
        <mxCell id="UD516i3Ji7gRSXzFSc0f-118" style="edgeStyle=orthogonalEdgeStyle;rounded=0;orthogonalLoop=1;jettySize=auto;html=1;exitX=0.75;exitY=0;exitDx=0;exitDy=0;entryX=0.25;entryY=0;entryDx=0;entryDy=0;" parent="1" source="UD516i3Ji7gRSXzFSc0f-19" target="UD516i3Ji7gRSXzFSc0f-19" edge="1">
          <mxGeometry relative="1" as="geometry">
            <Array as="points">
              <mxPoint x="-422.00000000000006" y="544.99" />
              <mxPoint x="-507.00000000000006" y="544.99" />
            </Array>
          </mxGeometry>
        </mxCell>
        <mxCell id="UD516i3Ji7gRSXzFSc0f-119" value="&lt;font style=&quot;font-size: 10px;&quot;&gt;Ввести личную информацию&lt;br&gt;[формат не соответствует]&lt;/font&gt;" style="text;html=1;align=center;verticalAlign=middle;resizable=0;points=[];autosize=1;strokeColor=none;fillColor=none;" parent="1" vertex="1">
          <mxGeometry x="-540.0000000000001" y="509.99" width="160" height="40" as="geometry" />
        </mxCell>
        <mxCell id="UD516i3Ji7gRSXzFSc0f-120" value="&lt;span style=&quot;font-size: 10px;&quot;&gt;Проверка состояния&amp;nbsp;&lt;br&gt;счета клиента&lt;/span&gt;" style="text;html=1;align=center;verticalAlign=middle;resizable=0;points=[];autosize=1;strokeColor=none;fillColor=none;fontSize=12;" parent="1" vertex="1">
          <mxGeometry x="1154.08" y="494.39" width="120" height="40" as="geometry" />
        </mxCell>
        <mxCell id="UD516i3Ji7gRSXzFSc0f-121" style="edgeStyle=orthogonalEdgeStyle;rounded=0;orthogonalLoop=1;jettySize=auto;html=1;exitX=1;exitY=0.5;exitDx=0;exitDy=0;entryX=0;entryY=0.5;entryDx=0;entryDy=0;entryPerimeter=0;" parent="1" source="UD516i3Ji7gRSXzFSc0f-60" target="UD516i3Ji7gRSXzFSc0f-122" edge="1">
          <mxGeometry relative="1" as="geometry">
            <mxPoint x="2533.08" y="534.3899999999999" as="sourcePoint" />
          </mxGeometry>
        </mxCell>
        <mxCell id="UD516i3Ji7gRSXzFSc0f-122" value="" style="points=[[0.145,0.145,0],[0.5,0,0],[0.855,0.145,0],[1,0.5,0],[0.855,0.855,0],[0.5,1,0],[0.145,0.855,0],[0,0.5,0]];shape=mxgraph.bpmn.event;html=1;verticalLabelPosition=bottom;labelBackgroundColor=#ffffff;verticalAlign=top;align=center;perimeter=ellipsePerimeter;outlineConnect=0;aspect=fixed;outline=end;symbol=terminate2;" parent="1" vertex="1">
          <mxGeometry x="1930" y="509.38" width="50" height="50" as="geometry" />
        </mxCell>
        <mxCell id="UD516i3Ji7gRSXzFSc0f-123" value="Возможность аутентифицированного пользователя" style="text;html=1;align=center;verticalAlign=middle;resizable=0;points=[];autosize=1;strokeColor=none;fillColor=none;" parent="1" vertex="1">
          <mxGeometry x="15.499999999999943" y="1371" width="300" height="20" as="geometry" />
        </mxCell>
        <mxCell id="UD516i3Ji7gRSXzFSc0f-124" value="заявка составлена" style="text;html=1;align=center;verticalAlign=middle;resizable=0;points=[];autosize=1;strokeColor=none;fillColor=none;" parent="1" vertex="1">
          <mxGeometry x="1239.9999999999998" y="1430" width="120" height="20" as="geometry" />
        </mxCell>
        <mxCell id="UD516i3Ji7gRSXzFSc0f-125" value="Оформление заявки&lt;br&gt;[пользователь]" style="text;html=1;align=center;verticalAlign=middle;resizable=0;points=[];autosize=1;strokeColor=none;fillColor=none;" parent="1" vertex="1">
          <mxGeometry x="615.0799999999999" y="1082.89" width="140" height="40" as="geometry" />
        </mxCell>
        <mxCell id="UD516i3Ji7gRSXzFSc0f-126" value="Вход в профиль" style="text;html=1;align=center;verticalAlign=middle;resizable=0;points=[];autosize=1;strokeColor=none;fillColor=none;" parent="1" vertex="1">
          <mxGeometry x="315.49999999999994" y="804.99" width="110" height="30" as="geometry" />
        </mxCell>
        <mxCell id="UD516i3Ji7gRSXzFSc0f-127" value="Пользователь аутентифицирован" style="text;html=1;align=center;verticalAlign=middle;resizable=0;points=[];autosize=1;strokeColor=none;fillColor=none;" parent="1" vertex="1">
          <mxGeometry x="270.49999999999994" y="879.99" width="200" height="20" as="geometry" />
        </mxCell>
        <mxCell id="UD516i3Ji7gRSXzFSc0f-128" value="Проверка состояния&amp;nbsp;&lt;br&gt;счета&lt;br&gt;&amp;nbsp;[служба поддержки]" style="text;html=1;align=center;verticalAlign=middle;resizable=0;points=[];autosize=1;strokeColor=none;fillColor=none;" parent="1" vertex="1">
          <mxGeometry x="609.9999999999999" y="420" width="140" height="60" as="geometry" />
        </mxCell>
        <mxCell id="UD516i3Ji7gRSXzFSc0f-129" value="Помощь клиенту &lt;br&gt;оказана&lt;br&gt;[служба поддержки]" style="text;html=1;align=center;verticalAlign=middle;resizable=0;points=[];autosize=1;strokeColor=none;fillColor=none;" parent="1" vertex="1">
          <mxGeometry x="620.0799999999999" y="710" width="130" height="50" as="geometry" />
        </mxCell>
        <mxCell id="UD516i3Ji7gRSXzFSc0f-130" value="&lt;font style=&quot;font-size: 10px;&quot;&gt;История операций &lt;br&gt;изучена&lt;/font&gt;" style="text;html=1;align=center;verticalAlign=middle;resizable=0;points=[];autosize=1;strokeColor=none;fillColor=none;" parent="1" vertex="1">
          <mxGeometry x="1815" y="495" width="110" height="40" as="geometry" />
        </mxCell>
        <mxCell id="UD516i3Ji7gRSXzFSc0f-131" style="edgeStyle=orthogonalEdgeStyle;rounded=0;orthogonalLoop=1;jettySize=auto;html=1;exitX=1;exitY=0.5;exitDx=0;exitDy=0;entryX=0;entryY=0.5;entryDx=0;entryDy=0;" parent="1" source="UD516i3Ji7gRSXzFSc0f-132" target="UD516i3Ji7gRSXzFSc0f-137" edge="1">
          <mxGeometry relative="1" as="geometry">
            <mxPoint x="1356.08" y="825" as="targetPoint" />
            <Array as="points" />
          </mxGeometry>
        </mxCell>
        <mxCell id="UD516i3Ji7gRSXzFSc0f-132" value="&lt;font style=&quot;font-size: 10px;&quot;&gt;Проверить состояние счета клиента&lt;/font&gt;&lt;span&gt;&lt;br&gt;&lt;/span&gt;" style="rounded=1;whiteSpace=wrap;html=1;" parent="1" vertex="1">
          <mxGeometry x="1273.08" y="650" width="174" height="40" as="geometry" />
        </mxCell>
        <mxCell id="UD516i3Ji7gRSXzFSc0f-133" style="edgeStyle=orthogonalEdgeStyle;rounded=0;orthogonalLoop=1;jettySize=auto;html=1;exitX=1;exitY=0.5;exitDx=0;exitDy=0;entryX=0;entryY=0.5;entryDx=0;entryDy=0;" parent="1" source="UD516i3Ji7gRSXzFSc0f-134" target="UD516i3Ji7gRSXzFSc0f-132" edge="1">
          <mxGeometry relative="1" as="geometry">
            <mxPoint x="1265.08" y="675" as="sourcePoint" />
            <Array as="points">
              <mxPoint x="1154.08" y="670" />
            </Array>
          </mxGeometry>
        </mxCell>
        <mxCell id="UD516i3Ji7gRSXzFSc0f-134" value="&lt;font style=&quot;font-size: 10px;&quot;&gt;&lt;font style=&quot;font-size: 10px;&quot;&gt;Ответить на сообщение&lt;/font&gt;&lt;/font&gt;&lt;div&gt;&lt;font style=&quot;font-size: 10px;&quot;&gt;&lt;font style=&quot;font-size: 10px;&quot;&gt;&lt;br&gt;do/отвечаем на сообщение в чате поддержки&lt;/font&gt;&lt;/font&gt;&lt;br&gt;&lt;/div&gt;" style="rounded=1;whiteSpace=wrap;html=1;" parent="1" vertex="1">
          <mxGeometry x="1001.0799999999999" y="645" width="153" height="60" as="geometry" />
        </mxCell>
        <mxCell id="UD516i3Ji7gRSXzFSc0f-135" style="edgeStyle=orthogonalEdgeStyle;rounded=0;orthogonalLoop=1;jettySize=auto;html=1;exitX=1;exitY=0.5;exitDx=0;exitDy=0;exitPerimeter=0;entryX=0;entryY=0.5;entryDx=0;entryDy=0;" parent="1" source="UD516i3Ji7gRSXzFSc0f-136" target="UD516i3Ji7gRSXzFSc0f-134" edge="1">
          <mxGeometry relative="1" as="geometry" />
        </mxCell>
        <mxCell id="UD516i3Ji7gRSXzFSc0f-136" value="" style="points=[[0.145,0.145,0],[0.5,0,0],[0.855,0.145,0],[1,0.5,0],[0.855,0.855,0],[0.5,1,0],[0.145,0.855,0],[0,0.5,0]];shape=mxgraph.bpmn.event;html=1;verticalLabelPosition=bottom;labelBackgroundColor=#ffffff;verticalAlign=top;align=center;perimeter=ellipsePerimeter;outlineConnect=0;aspect=fixed;outline=standard;symbol=general;fillColor=#000000;" parent="1" vertex="1">
          <mxGeometry x="760.0799999999999" y="650" width="50" height="50" as="geometry" />
        </mxCell>
        <mxCell id="UD516i3Ji7gRSXzFSc0f-137" value="&lt;font style=&quot;font-size: 10px;&quot;&gt;Узнать баланс карт&lt;/font&gt;&lt;div&gt;&lt;font style=&quot;font-size: 10px;&quot;&gt;&lt;span&gt;&lt;br&gt;&lt;/span&gt;do/открываем поле счета клиента&lt;/font&gt;&lt;span&gt;&lt;br&gt;&lt;/span&gt;&lt;/div&gt;" style="rounded=1;whiteSpace=wrap;html=1;" parent="1" vertex="1">
          <mxGeometry x="1577.08" y="647.19" width="172.92" height="45.61" as="geometry" />
        </mxCell>
        <mxCell id="UD516i3Ji7gRSXzFSc0f-138" value="&lt;font style=&quot;font-size: 10px;&quot;&gt;Ответ на сообщение&lt;/font&gt;" style="text;html=1;align=center;verticalAlign=middle;resizable=0;points=[];autosize=1;strokeColor=none;fillColor=none;" parent="1" vertex="1">
          <mxGeometry x="848.0799999999999" y="645" width="120" height="30" as="geometry" />
        </mxCell>
        <mxCell id="UD516i3Ji7gRSXzFSc0f-139" value="&lt;font style=&quot;font-size: 10px;&quot;&gt;Изучение баланса&lt;br&gt;карт&lt;/font&gt;" style="text;html=1;align=center;verticalAlign=middle;resizable=0;points=[];autosize=1;strokeColor=none;fillColor=none;" parent="1" vertex="1">
          <mxGeometry x="1452.08" y="630.61" width="110" height="40" as="geometry" />
        </mxCell>
        <mxCell id="UD516i3Ji7gRSXzFSc0f-140" value="" style="endArrow=none;html=1;rounded=0;fontSize=12;curved=1;entryX=1;entryY=0.25;entryDx=0;entryDy=0;exitX=0;exitY=0.25;exitDx=0;exitDy=0;" parent="1" source="UD516i3Ji7gRSXzFSc0f-134" target="UD516i3Ji7gRSXzFSc0f-134" edge="1">
          <mxGeometry width="50" height="50" relative="1" as="geometry">
            <mxPoint x="1003.5799999999999" y="685" as="sourcePoint" />
            <mxPoint x="1123.58" y="685" as="targetPoint" />
          </mxGeometry>
        </mxCell>
        <mxCell id="UD516i3Ji7gRSXzFSc0f-141" value="" style="endArrow=none;html=1;rounded=0;fontSize=12;curved=1;exitX=-0.001;exitY=0.332;exitDx=0;exitDy=0;exitPerimeter=0;" parent="1" source="UD516i3Ji7gRSXzFSc0f-137" edge="1">
          <mxGeometry width="50" height="50" relative="1" as="geometry">
            <mxPoint x="1623.0800000000008" y="654.5799999999998" as="sourcePoint" />
            <mxPoint x="1750" y="663" as="targetPoint" />
          </mxGeometry>
        </mxCell>
        <mxCell id="UD516i3Ji7gRSXzFSc0f-142" value="&lt;span style=&quot;font-size: 10px;&quot;&gt;Проверка состояния&amp;nbsp;&lt;/span&gt;&lt;br style=&quot;font-size: 10px;&quot;&gt;&lt;span style=&quot;font-size: 10px;&quot;&gt;счета клиента&lt;/span&gt;" style="text;html=1;align=center;verticalAlign=middle;resizable=0;points=[];autosize=1;strokeColor=none;fillColor=none;fontSize=12;" parent="1" vertex="1">
          <mxGeometry x="1154.08" y="630" width="120" height="40" as="geometry" />
        </mxCell>
        <mxCell id="UD516i3Ji7gRSXzFSc0f-143" style="edgeStyle=orthogonalEdgeStyle;rounded=0;orthogonalLoop=1;jettySize=auto;html=1;exitX=1;exitY=0.5;exitDx=0;exitDy=0;entryX=0;entryY=0.5;entryDx=0;entryDy=0;entryPerimeter=0;" parent="1" source="UD516i3Ji7gRSXzFSc0f-137" target="UD516i3Ji7gRSXzFSc0f-144" edge="1">
          <mxGeometry relative="1" as="geometry">
            <mxPoint x="2533.08" y="669.9999999999999" as="sourcePoint" />
          </mxGeometry>
        </mxCell>
        <mxCell id="UD516i3Ji7gRSXzFSc0f-144" value="" style="points=[[0.145,0.145,0],[0.5,0,0],[0.855,0.145,0],[1,0.5,0],[0.855,0.855,0],[0.5,1,0],[0.145,0.855,0],[0,0.5,0]];shape=mxgraph.bpmn.event;html=1;verticalLabelPosition=bottom;labelBackgroundColor=#ffffff;verticalAlign=top;align=center;perimeter=ellipsePerimeter;outlineConnect=0;aspect=fixed;outline=end;symbol=terminate2;" parent="1" vertex="1">
          <mxGeometry x="1930" y="644.99" width="50" height="50" as="geometry" />
        </mxCell>
        <mxCell id="UD516i3Ji7gRSXzFSc0f-145" value="&lt;font style=&quot;font-size: 10px;&quot;&gt;Баланс карты&lt;br&gt;изучен&lt;/font&gt;" style="text;html=1;align=center;verticalAlign=middle;resizable=0;points=[];autosize=1;strokeColor=none;fillColor=none;" parent="1" vertex="1">
          <mxGeometry x="1825" y="630.61" width="90" height="40" as="geometry" />
        </mxCell>
        <mxCell id="UD516i3Ji7gRSXzFSc0f-146" style="edgeStyle=orthogonalEdgeStyle;rounded=0;orthogonalLoop=1;jettySize=auto;html=1;exitX=1;exitY=0.5;exitDx=0;exitDy=0;entryX=0;entryY=0.5;entryDx=0;entryDy=0;" parent="1" source="UD516i3Ji7gRSXzFSc0f-147" target="UD516i3Ji7gRSXzFSc0f-152" edge="1">
          <mxGeometry relative="1" as="geometry">
            <mxPoint x="1356.08" y="960" as="targetPoint" />
            <Array as="points" />
          </mxGeometry>
        </mxCell>
        <mxCell id="UD516i3Ji7gRSXzFSc0f-147" value="&lt;font style=&quot;font-size: 10px;&quot;&gt;Проверить состояние счета клиента&lt;/font&gt;&lt;span&gt;&lt;br&gt;&lt;/span&gt;" style="rounded=1;whiteSpace=wrap;html=1;" parent="1" vertex="1">
          <mxGeometry x="1273.08" y="785" width="174" height="40" as="geometry" />
        </mxCell>
        <mxCell id="UD516i3Ji7gRSXzFSc0f-148" style="edgeStyle=orthogonalEdgeStyle;rounded=0;orthogonalLoop=1;jettySize=auto;html=1;exitX=1;exitY=0.5;exitDx=0;exitDy=0;entryX=0;entryY=0.5;entryDx=0;entryDy=0;" parent="1" source="UD516i3Ji7gRSXzFSc0f-149" target="UD516i3Ji7gRSXzFSc0f-147" edge="1">
          <mxGeometry relative="1" as="geometry">
            <mxPoint x="1265.08" y="810" as="sourcePoint" />
            <Array as="points">
              <mxPoint x="1154.08" y="805" />
            </Array>
          </mxGeometry>
        </mxCell>
        <mxCell id="UD516i3Ji7gRSXzFSc0f-149" value="&lt;font style=&quot;font-size: 10px;&quot;&gt;&lt;font style=&quot;font-size: 10px;&quot;&gt;Ответить на сообщение&lt;/font&gt;&lt;/font&gt;&lt;div&gt;&lt;font style=&quot;font-size: 10px;&quot;&gt;&lt;font style=&quot;font-size: 10px;&quot;&gt;&lt;br&gt;do/отвечаем на сообщение в чате поддержки&lt;/font&gt;&lt;/font&gt;&lt;br&gt;&lt;/div&gt;" style="rounded=1;whiteSpace=wrap;html=1;" parent="1" vertex="1">
          <mxGeometry x="1001.0799999999999" y="780" width="153" height="60" as="geometry" />
        </mxCell>
        <mxCell id="UD516i3Ji7gRSXzFSc0f-150" style="edgeStyle=orthogonalEdgeStyle;rounded=0;orthogonalLoop=1;jettySize=auto;html=1;exitX=1;exitY=0.5;exitDx=0;exitDy=0;exitPerimeter=0;entryX=0;entryY=0.5;entryDx=0;entryDy=0;" parent="1" source="UD516i3Ji7gRSXzFSc0f-151" target="UD516i3Ji7gRSXzFSc0f-149" edge="1">
          <mxGeometry relative="1" as="geometry" />
        </mxCell>
        <mxCell id="UD516i3Ji7gRSXzFSc0f-151" value="" style="points=[[0.145,0.145,0],[0.5,0,0],[0.855,0.145,0],[1,0.5,0],[0.855,0.855,0],[0.5,1,0],[0.145,0.855,0],[0,0.5,0]];shape=mxgraph.bpmn.event;html=1;verticalLabelPosition=bottom;labelBackgroundColor=#ffffff;verticalAlign=top;align=center;perimeter=ellipsePerimeter;outlineConnect=0;aspect=fixed;outline=standard;symbol=general;fillColor=#000000;" parent="1" vertex="1">
          <mxGeometry x="760.0799999999999" y="785" width="50" height="50" as="geometry" />
        </mxCell>
        <mxCell id="UD516i3Ji7gRSXzFSc0f-152" value="&lt;font style=&quot;font-size: 10px;&quot;&gt;Рассказать о состоянии кредита&lt;span&gt;&lt;br&gt;&lt;/span&gt;do/открываем поле кредитной истории клиента&lt;/font&gt;&lt;span&gt;&lt;br&gt;&lt;/span&gt;" style="rounded=1;whiteSpace=wrap;html=1;" parent="1" vertex="1">
          <mxGeometry x="1577.08" y="782.1899999999999" width="212" height="45.61" as="geometry" />
        </mxCell>
        <mxCell id="UD516i3Ji7gRSXzFSc0f-153" value="&lt;span style=&quot;font-size: 10px;&quot;&gt;Ответ на сообщение&lt;/span&gt;" style="text;html=1;align=center;verticalAlign=middle;resizable=0;points=[];autosize=1;strokeColor=none;fillColor=none;" parent="1" vertex="1">
          <mxGeometry x="848.0799999999999" y="780" width="120" height="30" as="geometry" />
        </mxCell>
        <mxCell id="UD516i3Ji7gRSXzFSc0f-154" value="&lt;font style=&quot;font-size: 10px;&quot;&gt;Изучение кредитной&lt;br&gt;истории&lt;/font&gt;" style="text;html=1;align=center;verticalAlign=middle;resizable=0;points=[];autosize=1;strokeColor=none;fillColor=none;" parent="1" vertex="1">
          <mxGeometry x="1447.08" y="765.61" width="120" height="40" as="geometry" />
        </mxCell>
        <mxCell id="UD516i3Ji7gRSXzFSc0f-155" value="" style="endArrow=none;html=1;rounded=0;fontSize=12;curved=1;entryX=1;entryY=0.25;entryDx=0;entryDy=0;exitX=0;exitY=0.25;exitDx=0;exitDy=0;" parent="1" source="UD516i3Ji7gRSXzFSc0f-149" target="UD516i3Ji7gRSXzFSc0f-149" edge="1">
          <mxGeometry width="50" height="50" relative="1" as="geometry">
            <mxPoint x="1003.5799999999999" y="820" as="sourcePoint" />
            <mxPoint x="1123.58" y="820" as="targetPoint" />
          </mxGeometry>
        </mxCell>
        <mxCell id="UD516i3Ji7gRSXzFSc0f-156" value="" style="endArrow=none;html=1;rounded=0;fontSize=12;curved=1;exitX=-0.001;exitY=0.332;exitDx=0;exitDy=0;exitPerimeter=0;" parent="1" source="UD516i3Ji7gRSXzFSc0f-152" edge="1">
          <mxGeometry width="50" height="50" relative="1" as="geometry">
            <mxPoint x="1623.0800000000008" y="789.5799999999998" as="sourcePoint" />
            <mxPoint x="1790" y="797.61" as="targetPoint" />
          </mxGeometry>
        </mxCell>
        <mxCell id="UD516i3Ji7gRSXzFSc0f-157" value="&lt;span style=&quot;font-size: 10px;&quot;&gt;Проверка состояния&amp;nbsp;&lt;/span&gt;&lt;br style=&quot;font-size: 10px;&quot;&gt;&lt;span style=&quot;font-size: 10px;&quot;&gt;счета клиента&lt;/span&gt;" style="text;html=1;align=center;verticalAlign=middle;resizable=0;points=[];autosize=1;strokeColor=none;fillColor=none;fontSize=12;" parent="1" vertex="1">
          <mxGeometry x="1154.08" y="765" width="120" height="40" as="geometry" />
        </mxCell>
        <mxCell id="UD516i3Ji7gRSXzFSc0f-158" style="edgeStyle=orthogonalEdgeStyle;rounded=0;orthogonalLoop=1;jettySize=auto;html=1;exitX=1;exitY=0.5;exitDx=0;exitDy=0;entryX=0;entryY=0.5;entryDx=0;entryDy=0;entryPerimeter=0;" parent="1" source="UD516i3Ji7gRSXzFSc0f-152" target="UD516i3Ji7gRSXzFSc0f-159" edge="1">
          <mxGeometry relative="1" as="geometry">
            <mxPoint x="2533.08" y="804.9999999999999" as="sourcePoint" />
          </mxGeometry>
        </mxCell>
        <mxCell id="UD516i3Ji7gRSXzFSc0f-159" value="" style="points=[[0.145,0.145,0],[0.5,0,0],[0.855,0.145,0],[1,0.5,0],[0.855,0.855,0],[0.5,1,0],[0.145,0.855,0],[0,0.5,0]];shape=mxgraph.bpmn.event;html=1;verticalLabelPosition=bottom;labelBackgroundColor=#ffffff;verticalAlign=top;align=center;perimeter=ellipsePerimeter;outlineConnect=0;aspect=fixed;outline=end;symbol=terminate2;" parent="1" vertex="1">
          <mxGeometry x="1930" y="779.99" width="50" height="50" as="geometry" />
        </mxCell>
        <mxCell id="UD516i3Ji7gRSXzFSc0f-160" value="&lt;font style=&quot;font-size: 10px;&quot;&gt;Кредитная история&lt;br&gt;изучена&lt;/font&gt;" style="text;html=1;align=center;verticalAlign=middle;resizable=0;points=[];autosize=1;strokeColor=none;fillColor=none;" parent="1" vertex="1">
          <mxGeometry x="1810" y="765.61" width="120" height="40" as="geometry" />
        </mxCell>
        <mxCell id="UD516i3Ji7gRSXzFSc0f-161" value="Заявка составлена" style="text;html=1;align=center;verticalAlign=middle;resizable=0;points=[];autosize=1;strokeColor=none;fillColor=none;" parent="1" vertex="1">
          <mxGeometry x="594.9999999999999" y="1306" width="120" height="20" as="geometry" />
        </mxCell>
        <mxCell id="UD516i3Ji7gRSXzFSc0f-162" value="" style="endArrow=none;dashed=1;html=1;rounded=0;curved=1;exitX=0;exitY=0.424;exitDx=0;exitDy=0;exitPerimeter=0;" parent="1" edge="1">
          <mxGeometry width="50" height="50" relative="1" as="geometry">
            <mxPoint x="750.0799999999999" y="601.78" as="sourcePoint" />
            <mxPoint x="2070" y="598" as="targetPoint" />
          </mxGeometry>
        </mxCell>
        <mxCell id="UD516i3Ji7gRSXzFSc0f-163" value="" style="endArrow=none;dashed=1;html=1;rounded=0;curved=1;exitX=0;exitY=0.424;exitDx=0;exitDy=0;exitPerimeter=0;" parent="1" edge="1">
          <mxGeometry width="50" height="50" relative="1" as="geometry">
            <mxPoint x="748.9099999999995" y="743.88" as="sourcePoint" />
            <mxPoint x="2068.83" y="740.1" as="targetPoint" />
          </mxGeometry>
        </mxCell>
        <mxCell id="Z1knhOyiOVoYuxiEUO4T-7" style="edgeStyle=orthogonalEdgeStyle;rounded=0;orthogonalLoop=1;jettySize=auto;html=1;exitX=0.75;exitY=1;exitDx=0;exitDy=0;entryX=0.25;entryY=1;entryDx=0;entryDy=0;" parent="1" source="UD516i3Ji7gRSXzFSc0f-23" target="UD516i3Ji7gRSXzFSc0f-23" edge="1">
          <mxGeometry relative="1" as="geometry" />
        </mxCell>
      </root>
    </mxGraphModel>
  </diagram>
</mxfile>
